<svg width="1057" height="679" viewBox="0 0 1057 679" fill="none" xmlns="http://www.w3.org/2000/svg">
<rect width="1057" height="679" fill="#FAFAFA"/>
<g clip-path="url(#clip0)">
<path d="M167.5 678.5C241.506 678.5 301.5 668.874 301.5 657C301.5 645.126 241.506 635.5 167.5 635.5C93.4938 635.5 33.5 645.126 33.5 657C33.5 668.874 93.4938 678.5 167.5 678.5Z" fill="#F2F2F2"/>
<path d="M178 666C252.006 666 312 656.374 312 644.5C312 632.626 252.006 623 178 623C103.994 623 44 632.626 44 644.5C44 656.374 103.994 666 178 666Z" stroke="#BDBDBD" stroke-miterlimit="10"/>
<path d="M461.66 27.5H104.34C91.7259 27.5 81.5 37.7259 81.5 50.3402V244.66C81.5 257.274 91.7259 267.5 104.34 267.5H461.66C474.274 267.5 484.5 257.274 484.5 244.66V50.3402C484.5 37.7259 474.274 27.5 461.66 27.5Z" fill="#70C55D"/>
<path d="M990.66 219.5H633.34C620.726 219.5 610.5 229.726 610.5 242.34V436.66C610.5 449.274 620.726 459.5 633.34 459.5H990.66C1003.27 459.5 1013.5 449.274 1013.5 436.66V242.34C1013.5 229.726 1003.27 219.5 990.66 219.5Z" fill="#BDBDBD"/>
<path d="M430.66 0.5H73.3402C60.7259 0.5 50.5 10.7259 50.5 23.3402V217.66C50.5 230.274 60.7259 240.5 73.3402 240.5H430.66C443.274 240.5 453.5 230.274 453.5 217.66V23.3402C453.5 10.7259 443.274 0.5 430.66 0.5Z" stroke="#BDBDBD" stroke-miterlimit="10"/>
<path d="M959.66 192.5H602.34C589.726 192.5 579.5 202.726 579.5 215.34V409.66C579.5 422.274 589.726 432.5 602.34 432.5H959.66C972.274 432.5 982.5 422.274 982.5 409.66V215.34C982.5 202.726 972.274 192.5 959.66 192.5Z" stroke="#BDBDBD" stroke-miterlimit="10"/>
<path d="M22.8807 455.457C18.618 455.698 14.5066 457.122 11.0076 459.568C7.50858 462.015 4.76023 465.387 3.07071 469.308C-1.88279 481.282 4.4952 495.347 14.0697 504.079C23.6442 512.81 35.9433 517.801 47.118 524.361C62.1275 533.172 75.6148 545.404 83.1249 561.105C90.635 576.806 91.4338 596.255 82.606 611.255C74.4123 625.177 59.5135 633.51 45.3038 641.194" stroke="#2F2E41" stroke-miterlimit="10"/>
<path d="M35.5 465C45.165 465 53 461.194 53 456.5C53 451.806 45.165 448 35.5 448C25.835 448 18 451.806 18 456.5C18 461.194 25.835 465 35.5 465Z" fill="#70C55D"/>
<path d="M49.5 521C59.165 521 67 517.194 67 512.5C67 507.806 59.165 504 49.5 504C39.835 504 32 507.806 32 512.5C32 517.194 39.835 521 49.5 521Z" fill="#70C55D"/>
<path d="M17.5 530C27.165 530 35 526.194 35 521.5C35 516.806 27.165 513 17.5 513C7.83502 513 0 516.806 0 521.5C0 526.194 7.83502 530 17.5 530Z" fill="#70C55D"/>
<path d="M67.5 577C77.165 577 85 573.194 85 568.5C85 563.806 77.165 560 67.5 560C57.835 560 50 563.806 50 568.5C50 573.194 57.835 577 67.5 577Z" fill="#70C55D"/>
<path d="M102.5 577C112.165 577 120 573.194 120 568.5C120 563.806 112.165 560 102.5 560C92.835 560 85 563.806 85 568.5C85 573.194 92.835 577 102.5 577Z" fill="#70C55D"/>
<path d="M256 271.5C256 271.5 258 286.5 253 292.5C248 298.5 240 338.5 240 338.5V362.5C240 362.5 271 317.5 277 299.5C283 281.5 277 267.5 277 267.5L256 271.5Z" fill="#FFC1C7"/>
<path d="M253 197.5L253.423 197.975C258.587 203.783 262.639 210.49 265.379 217.762C271.944 235.195 286.055 278.167 281 282.5C274 288.5 254 292.5 253 291.5C252 290.5 232 228.5 232 228.5L253 197.5Z" fill="#4D8AF0"/>
<path d="M220.5 622.5C220.5 622.5 244.5 627.5 245.5 622.5C246.14 619.392 247.147 616.37 248.5 613.5C248.5 613.5 270.253 614.406 264.574 633.477C264.004 635.356 262.761 636.959 261.082 637.979C255.902 641.149 243.699 648.626 237.5 652.5C232.841 655.412 226.146 653.236 221.368 650.911C219.655 650.072 218.269 648.689 217.426 646.978C216.583 645.267 216.331 643.325 216.709 641.456L220.5 622.5Z" fill="#2F2E41"/>
<path d="M151.5 625.5C151.5 625.5 127.5 630.5 126.5 625.5C125.86 622.392 124.853 619.37 123.5 616.5C123.5 616.5 101.789 617.405 107.41 636.422C107.988 638.337 109.254 639.971 110.965 641.008C116.173 644.195 128.32 651.638 134.5 655.5C139.602 658.689 147.145 655.776 151.94 653.248C153.272 652.552 154.343 651.445 154.993 650.09C155.643 648.735 155.837 647.206 155.546 645.732L151.5 625.5Z" fill="#2F2E41"/>
<path d="M121.5 284.5C121.5 284.5 119.5 299.5 124.5 305.5C129.5 311.5 137.5 334.5 137.5 334.5V358.5C137.5 358.5 106.5 330.5 100.5 312.5C94.5 294.5 100.5 280.5 100.5 280.5L121.5 284.5Z" fill="#FFC1C7"/>
<path d="M191.5 161.5C205.307 161.5 216.5 150.307 216.5 136.5C216.5 122.693 205.307 111.5 191.5 111.5C177.693 111.5 166.5 122.693 166.5 136.5C166.5 150.307 177.693 161.5 191.5 161.5Z" fill="#FFC1C7"/>
<path d="M211.5 146.5C211.5 146.5 204.5 178.5 211.5 182.5C218.5 186.5 169.5 182.5 169.5 182.5C169.5 182.5 180.5 155.5 175.5 146.5C170.5 137.5 211.5 146.5 211.5 146.5Z" fill="#FFC1C7"/>
<path d="M235.5 359.5C235.5 359.5 244.5 372.5 241.5 412.5C238.5 452.5 235.5 494.5 235.5 494.5C235.5 494.5 257.5 620.5 250.5 623.5C243.5 626.5 220.5 629.5 217.5 626.5C214.5 623.5 200.5 506.5 200.5 506.5L187.5 410.5L167.5 520.5C167.5 520.5 156.5 627.5 148.5 632.5C142.781 636.074 131.441 633.516 125.439 631.767C124.313 631.443 123.329 630.751 122.644 629.801C121.959 628.851 121.614 627.698 121.664 626.528C122.397 609.701 125.688 543.294 133.5 502.5C142.5 455.5 124.5 361.5 140.5 359.5C156.5 357.5 235.5 359.5 235.5 359.5Z" fill="#535461"/>
<path d="M165.5 178.5C165.5 178.5 169.5 160.5 184.5 162.5C199.5 164.5 209.5 163.5 212.5 173.5C215.5 183.5 247.5 191.5 247.5 191.5C247.5 191.5 255.5 192.5 254.5 205.5C253.5 218.5 233.5 266.5 233.5 266.5C233.5 266.5 234.5 306.5 239.5 324.5C244.5 342.5 244.5 364.5 233.5 369.5C222.5 374.5 153.5 392.5 137.5 370.5C137.5 370.5 128.5 338.5 134.5 325.5C140.5 312.5 133.5 261.5 133.5 261.5L114.5 219.5C114.5 219.5 120.5 199.5 137.5 193.5C147.561 189.996 157.009 184.934 165.5 178.5V178.5Z" fill="#4D8AF0"/>
<path d="M122.5 210.5L114.5 219.5C114.5 219.5 90.5 278.5 97.5 284.5C104.5 290.5 124.5 294.5 125.5 293.5C126.5 292.5 143.5 241.5 143.5 241.5L122.5 210.5Z" fill="#4D8AF0"/>
<path d="M220.5 121.5C220.5 121.5 216.5 124.5 215.5 131.5C214.5 138.5 208.359 127.511 206.93 142.006C205.5 156.5 181.5 166.5 172.5 159.5C163.5 152.5 148.5 108.5 169.5 101.5C190.5 94.5 211.5 95.5 215.5 102.5C219.5 109.5 220.5 121.5 220.5 121.5Z" fill="#2F2E41"/>
<path opacity="0.1" d="M200.93 142.006C202.359 127.511 208.5 138.5 209.5 131.5C210.5 124.5 214.5 121.5 214.5 121.5C214.5 121.5 213.5 109.5 209.5 102.5C207.586 99.1507 201.775 97.1794 193.94 96.7964C204.75 96.3011 213.124 98.342 215.5 102.5C219.5 109.5 220.5 121.5 220.5 121.5C220.5 121.5 216.5 124.5 215.5 131.5C214.5 138.5 208.359 127.511 206.93 142.006C205.718 154.294 188.287 163.346 177.523 161.554C187.781 160.145 199.925 152.19 200.93 142.006Z" fill="black"/>
</g>
<defs>
<clipPath id="clip0">
<rect width="1057" height="678.5" fill="white"/>
</clipPath>
</defs>
</svg>
