<?xml version="1.0" encoding="UTF-8"?>
<svg width="115px" height="115px" viewBox="0 0 115 115" version="1.1" xmlns="http://www.w3.org/2000/svg" xmlns:xlink="http://www.w3.org/1999/xlink">
    <!-- Generator: Sketch 55.1 (78136) - https://sketchapp.com -->
    <title>55. tool</title>
    <desc>Created with Sketch.</desc>
    <g id="Page-1" stroke="none" stroke-width="1" fill="none" fill-rule="evenodd">
        <g id="tool" transform="translate(-22.000000, -22.000000)" fill="#71A261" fill-rule="nonzero">
            <path d="M30.8020892,52.3812082 C29.4996195,60.5234406 32.1181607,68.958114 38.1247506,74.9628267 C45.6351201,82.4708491 56.9461512,84.6841681 66.7341786,80.5608943 C68.2240722,79.9332664 69.9456674,80.27052 71.0886251,81.4139129 L116.045769,126.388199 C118.910843,129.237267 123.540545,129.237267 126.392993,126.400811 C129.235669,123.548519 129.235669,118.935683 126.398174,116.08858 L81.401429,71.1058974 C80.1562375,69.8610951 79.9094566,67.9957436 80.6612419,66.5049735 C80.6785503,66.457271 80.6968304,66.4097007 80.7160915,66.3622852 C84.6889121,56.5822908 82.3715736,45.3726491 74.8460326,37.9679354 C68.8300545,32.0485477 60.434576,29.4943141 52.343169,30.8154777 L67.314535,45.7821648 C68.8674548,47.3345993 68.8674548,49.8521077 67.314535,51.4045422 L51.3801365,67.3339607 C49.827903,68.8857091 47.3117498,68.8857091 45.7595162,67.3339607 L30.8020892,52.3812082 Z M132.023976,110.471392 C137.958675,116.426166 137.958675,126.058035 132.01135,132.025422 C126.045249,137.958193 116.406139,137.958193 110.431619,132.017025 L67.2739162,88.8428899 C55.1317426,92.8551955 41.6553195,89.7335333 32.5041303,80.5852041 C22.7072136,70.7913492 19.8191645,56.0413754 25.1994244,43.2774353 C26.2955755,40.6769647 29.6768162,40.0150458 31.6726222,42.0102281 L48.5698264,58.9021515 L58.8818471,48.5933535 L41.9864004,31.7031869 C39.99333,29.7107394 40.6491908,26.3344835 43.2432554,25.2331183 C55.9247245,19.8489315 70.6022809,22.6392135 80.4218554,32.3011285 C89.7190641,41.4490647 92.9246835,55.0481833 88.8400615,67.3009645 L132.023976,110.471392 Z M107.81324,113.438873 C106.260663,111.886781 106.26027,109.369951 107.812362,107.817374 C109.364453,106.264797 111.881284,106.264404 113.43386,107.816495 L124.067187,118.446499 C125.619764,119.99859 125.620157,122.515421 124.068065,124.067998 C122.515974,125.620574 119.999143,125.620968 118.446567,124.068876 L107.81324,113.438873 Z" id="55.-tool"></path>
        </g>
    </g>
</svg>