<svg width="1149" height="785" viewBox="0 0 1149 785" fill="none" xmlns="http://www.w3.org/2000/svg">
<rect width="1149" height="785" fill="#FAFAFA"/>
<g clip-path="url(#clip0)">
<path d="M435 747.079C435 767.509 339.19 784.079 221 784.079C102.81 784.079 7 767.509 7 747.079C7 741.969 12.98 737.109 23.8 732.689C55.3 719.799 127.83 710.639 213.08 710.109C215.71 710.089 218.35 710.079 221 710.079C339.19 710.079 435 726.649 435 747.079Z" fill="#535461"/>
<path opacity="0.1" d="M213.08 710.109C203.491 725.742 190.487 739.002 175.043 748.893C159.6 758.785 142.117 765.051 123.907 767.224C105.696 769.396 87.2299 767.418 69.8928 761.437C52.5557 755.456 36.7976 745.628 23.8 732.689C55.3 719.799 127.83 710.639 213.08 710.109Z" fill="black"/>
<path d="M112 748.079C173.856 748.079 224 694.353 224 628.079C224 561.805 173.856 508.079 112 508.079C50.1441 508.079 0 561.805 0 628.079C0 694.353 50.1441 748.079 112 748.079Z" fill="#BDBDBD"/>
<path d="M249.427 83.3368C265.307 144.514 316.536 184.055 363.965 171.743Z" fill="#535461"/>
<path d="M363.965 171.743C347.907 109.879 377.741 48.7023 430.669 34.9636Z" fill="#70C55D"/>
<path d="M281.956 80.8124C297.041 138.924 333.72 179.594 363.965 171.743Z" fill="#70C55D"/>
<path d="M363.965 171.743C343.446 92.6948 376.346 15.8799 437.522 0Z" fill="#535461"/>
<path d="M346.116 177.209C346.116 177.209 358.187 173.676 361.177 170.112C364.166 166.549 378.409 159.524 380.406 163.476C382.402 167.428 404.1 179.56 390.39 183.237C376.68 186.914 357.912 189.383 353.673 188.103C349.434 186.824 346.116 177.209 346.116 177.209Z" fill="#A8A8A8"/>
<path opacity="0.2" d="M390.257 181.715C376.547 185.392 357.779 187.861 353.54 186.582C350.311 185.607 347.619 179.803 346.518 177.088C346.263 177.166 346.116 177.209 346.116 177.209C346.116 177.209 349.434 186.824 353.673 188.103C357.912 189.383 376.68 186.914 390.39 183.237C394.348 182.175 395.352 180.409 394.734 178.338C394.511 179.744 393.203 180.925 390.257 181.715Z" fill="black"/>
<path d="M1149 126.079H343V593.079H1149V126.079Z" fill="#BDBDBD"/>
<path opacity="0.3" d="M804 267.829H362V499.329H804V267.829Z" fill="#70C55D"/>
<path d="M1015.28 257.737H838V267.544H1015.28V257.737Z" fill="white"/>
<path d="M1096 275.842H838V285.649H1096V275.842Z" fill="white"/>
<path d="M1015.28 319.597H838V329.404H1015.28V319.597Z" fill="white"/>
<path d="M1015.28 392.018H838V401.825H1015.28V392.018Z" fill="white"/>
<path d="M1096 337.702H838V347.509H1096V337.702Z" fill="white"/>
<path d="M1096 355.807H838V365.614H1096V355.807Z" fill="white"/>
<path d="M1096 373.913H838V383.72H1096V373.913Z" fill="white"/>
<path d="M930.789 435.772H838V461.421H930.789V435.772Z" fill="#70C55D"/>
<path d="M314.488 407.914C314.488 407.914 331.144 360.719 343.174 375.525C355.204 390.331 324.667 415.317 324.667 415.317L314.488 407.914Z" fill="#A0616A"/>
<path d="M235.83 361.644L245.85 365.358C245.85 365.358 250.636 386.63 248.785 390.331C246.935 394.033 246.009 391.257 248.785 398.66C251.562 406.063 259.89 425.496 260.815 428.272C261.741 431.048 314.488 410.69 314.488 400.51C314.488 400.51 325.592 413.466 331.144 416.242C331.144 416.242 270.069 460.66 261.741 466.213C253.412 471.765 248.785 468.989 241.382 462.511C233.979 456.033 202.516 402.361 202.516 402.361L235.83 361.644Z" fill="#4D8AF0"/>
<path d="M262.666 690.155C262.666 690.155 261.741 700.335 259.89 701.26C258.039 702.185 244.158 725.32 259.89 729.947C275.621 734.574 284.875 732.723 288.577 734.574C292.278 736.424 357.055 740.126 357.981 729.947C358.906 719.768 326.518 717.917 326.518 717.917C326.518 717.917 296.905 698.484 292.278 688.305C287.651 678.125 262.666 690.155 262.666 690.155Z" fill="#2F2E41"/>
<path d="M74.8134 708.663C74.8134 708.663 52.6043 746.604 58.1565 751.231C63.7088 755.857 117.782 772.719 125.709 773.44C135.889 774.365 143.292 766.037 134.963 761.41C126.635 756.783 109.053 737.35 109.053 730.872V714.215L74.8134 708.663Z" fill="#2F2E41"/>
<path d="M53.5296 460.66C53.5296 460.66 34.0966 484.72 64.6342 523.586L115.53 588.363C115.53 588.363 84.0672 638.334 83.1418 664.245C82.2164 690.155 75.7388 684.603 73.888 695.708C72.0373 706.812 63.7088 701.26 70.1865 709.588C76.6642 717.917 100.724 725.32 108.127 718.842C115.53 712.364 115.53 704.036 115.53 700.334C115.53 696.633 128.486 675.349 129.411 668.871C130.336 662.394 164.576 609.647 164.576 609.647C164.576 609.647 175.68 578.184 162.725 560.602C149.769 543.019 141.208 518.083 141.208 518.083C141.208 518.083 179.382 564.303 206.218 575.408C206.218 575.408 216.397 577.259 214.546 581.885C212.695 586.512 214.546 589.289 217.322 593.915C220.099 598.542 239.532 652.215 246.009 666.095C252.487 679.976 249.711 688.304 257.114 692.931C264.517 697.558 297.831 693.857 297.831 689.23C297.831 684.603 293.204 672.573 290.428 666.095C287.651 659.618 265.442 584.662 267.293 571.706C269.144 558.751 266.368 541.169 252.487 533.766C238.606 526.363 168.277 466.213 164.576 466.213C160.874 466.213 53.5296 460.66 53.5296 460.66Z" fill="#535461"/>
<path d="M239.532 315.375C260.997 315.375 278.398 297.974 278.398 276.509C278.398 255.044 260.997 237.643 239.532 237.643C218.066 237.643 200.665 255.044 200.665 276.509C200.665 297.974 218.066 315.375 239.532 315.375Z" fill="#A0616A"/>
<path d="M208.069 280.211C208.069 280.211 196.039 301.495 181.232 304.271C166.426 307.047 220.099 349.615 220.099 349.615C220.099 349.615 233.054 308.898 244.158 307.047C255.263 305.196 208.069 280.211 208.069 280.211Z" fill="#A0616A"/>
<path d="M246.009 367.197C246.009 379.227 209.919 413.466 209.919 413.466L175.68 442.153C175.68 442.153 174.755 452.332 171.053 453.257C167.352 454.183 162.725 454.183 166.426 459.735C170.128 465.287 179.382 477.317 171.053 479.168C168.542 479.55 166.012 479.791 163.474 479.89C161.253 480.019 158.644 480.14 155.71 480.251C148.863 480.491 140.294 480.649 131.012 480.584C128.374 480.575 125.691 480.544 122.961 480.491C87.9724 479.797 47.4405 475.772 50.7535 462.511C56.3058 440.302 52.6043 432.899 64.6342 420.869C76.6642 408.839 96.0972 367.197 96.0972 367.197C96.0972 367.197 134.963 301.495 167.352 301.495L174.079 299.727C177.205 298.904 180.511 299.084 183.529 300.243C186.546 301.403 189.123 303.482 190.893 306.186C197.39 316.079 207.634 330.94 213.621 335.734C222.875 343.137 224.318 337.825 224.318 337.825C224.318 337.825 246.009 355.167 246.009 367.197Z" fill="#4D8AF0"/>
<path d="M163.65 507.855C163.65 507.855 190.486 549.497 173.829 556.9C157.172 564.303 147.919 513.407 147.919 513.407L163.65 507.855Z" fill="#A0616A"/>
<path d="M214.123 272.119C215.615 271.931 216.087 270.049 216.338 268.567C217.682 260.628 223.598 253.101 231.546 251.819C234.585 251.415 237.674 251.664 240.608 252.55C244.811 253.703 248.757 255.645 252.235 258.273C254.071 259.661 255.837 261.273 258.045 261.921C259.504 262.349 265.696 265.102 267.143 265.568C270.324 266.592 272.957 269.922 276.233 269.263C279.367 268.632 280.557 264.847 281.061 261.69C282.209 254.497 278.092 243.765 273.999 237.74C270.892 233.168 265.636 230.537 260.38 228.825C254.223 226.956 247.896 225.699 241.493 225.072C232.848 224.051 223.894 223.509 215.609 226.181C207.324 228.854 199.781 235.39 198.234 243.957C197.912 245.741 197.851 247.569 197.457 249.339C196.493 253.657 193.637 257.286 191.97 261.383C190.768 264.393 190.21 267.621 190.332 270.859C190.454 274.098 191.253 277.275 192.678 280.185C194.985 284.826 198.998 289.285 198.132 294.395L205.273 288.764C206.305 288.177 207.105 287.255 207.538 286.15C207.972 285.045 208.014 283.825 207.657 282.693L206.619 273.752C206.429 272.115 206.263 270.348 207.082 268.917C210.256 263.373 211.636 272.433 214.123 272.119Z" fill="#2F2E41"/>
<path opacity="0.1" d="M146.993 444.003L155.71 480.251C146.919 480.565 135.287 480.732 122.961 480.491C119.852 471.163 116.881 461.438 114.605 452.332C106.276 419.018 120.157 368.122 127.56 344.062C134.963 320.002 153.471 313.525 153.471 313.525C153.471 313.525 162.725 316.301 174.755 324.629C186.785 332.958 146.993 444.003 146.993 444.003Z" fill="black"/>
<path opacity="0.1" d="M154.396 442.153L163.474 479.89C161.253 480.019 158.644 480.14 155.71 480.251C148.863 480.491 140.294 480.649 131.012 480.584C127.671 470.673 124.442 460.216 122.008 450.481C113.679 417.167 127.56 366.271 134.963 342.211C142.366 318.151 158.561 344.525 158.561 344.525C158.561 344.525 152.083 328.793 164.113 337.122C176.143 345.45 154.396 442.153 154.396 442.153Z" fill="black"/>
<path d="M157.172 311.674C157.172 311.674 138.665 318.151 131.262 342.211C123.859 366.271 109.978 417.167 118.306 450.481C126.635 483.795 144.217 525.437 144.217 525.437C144.217 525.437 161.799 512.482 168.277 515.258L150.695 442.153C150.695 442.153 190.486 331.107 178.456 322.778C166.426 314.45 157.172 311.674 157.172 311.674Z" fill="#4D8AF0"/>
<path d="M785 243.829H343V475.329H785V243.829Z" fill="white"/>
<path d="M572.223 414.219C599.847 414.219 622.241 391.785 622.241 364.111C622.241 336.437 599.847 314.003 572.223 314.003C544.599 314.003 522.206 336.437 522.206 364.111C522.206 391.785 544.599 414.219 572.223 414.219Z" fill="white"/>
<path d="M572.223 305.463C560.4 305.463 548.843 308.969 539.013 315.537C529.183 322.106 521.521 331.441 516.997 342.364C512.472 353.287 511.288 365.306 513.595 376.902C515.901 388.497 521.595 399.149 529.955 407.508C538.315 415.868 548.966 421.562 560.561 423.868C572.157 426.175 584.176 424.991 595.099 420.466C606.022 415.942 615.357 408.28 621.926 398.45C628.494 388.62 632 377.063 632 365.24C631.954 349.4 625.641 334.223 614.441 323.022C603.24 311.822 588.063 305.509 572.223 305.463V305.463ZM559.952 397.111L529.316 366.476L537.909 357.883L559.98 379.954L606.566 333.368L615.159 341.961L559.952 397.111V397.111Z" fill="#70C55D"/>
</g>
<defs>
<clipPath id="clip0">
<rect width="1149" height="784.079" fill="white"/>
</clipPath>
</defs>
</svg>
