<?xml version="1.0" encoding="UTF-8"?>
<svg width="142px" height="159px" viewBox="0 0 142 159" version="1.1" xmlns="http://www.w3.org/2000/svg" xmlns:xlink="http://www.w3.org/1999/xlink">
    <!-- Generator: Sketch 55.1 (78136) - https://sketchapp.com -->
    <title>01. Home</title>
    <desc>Created with Sketch.</desc>
    <g id="Page-1" stroke="none" stroke-width="1" fill="none" fill-rule="evenodd">
        <g id="Group-12" transform="translate(-92.000000, -83.000000)" fill="#71A261" fill-rule="nonzero">
            <g id="Home" transform="translate(59.000000, 59.000000)">
                <path d="M104,34.4083698 C100.658816,34.3695652 97.4077613,35.4588555 94.7348144,37.473935 L49.5670343,71.7384166 C45.6786545,74.6697858 43.3902439,79.2702804 43.3902439,84.1558957 L43.3902439,157.108586 C43.3902439,165.681066 50.3038521,172.630435 58.83222,172.630435 L149.16778,172.630435 C157.696148,172.630435 164.609756,165.681066 164.609756,157.108586 L164.609756,83.9618726 C164.549563,79.1446524 162.267497,74.6285967 158.432966,71.7384166 L113.265186,37.5127396 C110.592239,35.4976602 107.341184,34.4083698 104,34.4083698 L104,24.0388046 C107.597339,24.0388046 111.131329,24.7914205 114.390244,26.2271847 L114.390244,34.4083698 L104,34.4083698 Z M119.548247,29.2539265 L164.694817,63.4635741 C171.096462,68.2886507 174.898991,75.8136022 175,83.9618726 L175,157.108586 C175,171.391485 163.45122,183 149.16778,183 L58.83222,183 C44.5487799,183 33,171.391485 33,157.108586 L33,84.1558957 C33,76.0232723 36.8129448,68.3579382 43.2794566,63.4830273 L88.4721438,29.1997099 C92.9474438,25.8258738 98.3968781,24 104,24 L114.390244,26.2271847 C116.20733,27.0277294 117.938898,28.0406573 119.548247,29.2539265 Z" id="01.-Home"></path>
            </g>
        </g>
    </g>
</svg>