<?xml version="1.0" encoding="UTF-8"?>
<svg width="26px" height="25px" viewBox="0 0 26 25" version="1.1" xmlns="http://www.w3.org/2000/svg" xmlns:xlink="http://www.w3.org/1999/xlink">
    <!-- Generator: Sketch 55.1 (78136) - https://sketchapp.com -->
    <title>Path</title>
    <desc>Created with Sketch.</desc>
    <g id="Page-1" stroke="none" stroke-width="1" fill="none" fill-rule="evenodd">
        <path d="M15.5752479,20.3454264 C18.5759088,19.2437351 20.7257467,16.2710926 20.7257467,12.7768655 C20.7257467,9.28263843 18.5759088,6.30999593 15.5752479,5.20830462 L15.5752479,10.0650354 C15.5752479,11.5322223 14.4222695,12.7216123 13,12.7216123 C11.5777275,12.7216123 10.4247491,11.5322223 10.4247491,10.0650354 L10.4247491,5.20830462 C7.42408815,6.30999593 5.27425031,9.28263843 5.27425031,12.7768655 C5.27425031,16.2710926 7.42408815,19.2437351 10.4247491,20.3454264 L10.4247491,24.3932347 L4.16742419,24.3932347 C2.55901503,24.3932347 1.21952411,23.1569657 1.08754603,21.5506937 L0.0104515462,9.0484138 C-0.0812669401,7.93213123 0.435727017,6.85322613 1.36244443,6.22696492 L11.273421,0.529281166 C12.3178009,-0.176494509 13.6851608,-0.176421283 14.7294654,0.529466245 L24.6378294,6.2269285 C25.564382,6.85322273 26.0812573,7.93202778 25.9895485,9.0481923 L24.9124358,21.5506937 C24.7804577,23.1569657 23.4409668,24.3932347 21.8325576,24.3932347 L15.5752479,24.3932347 L15.5752479,20.3454264 Z" id="Path" fill="#40A6FF"></path>
    </g>
</svg>