<?xml version="1.0" encoding="UTF-8"?>
<svg width="59px" height="59px" viewBox="0 0 59 59" version="1.1" xmlns="http://www.w3.org/2000/svg" xmlns:xlink="http://www.w3.org/1999/xlink">
    <!-- Generator: Sketch 55.1 (78136) - https://sketchapp.com -->
    <title>Path</title>
    <desc>Created with Sketch.</desc>
    <g id="Page-1" stroke="none" stroke-width="1" fill="none" fill-rule="evenodd">
        <path d="M35.2803161,58.7734659 L35.2803161,45.991201 C42.0772716,43.500808 46.9469828,36.7810964 46.9469828,28.8823335 C46.9469828,20.9835705 42.0772716,14.2638589 35.2803161,11.7734659 L35.2803161,22.7521929 C35.2803161,26.0687952 32.6686438,28.7574326 29.4469828,28.7574326 C26.2253217,28.7574326 23.6136495,26.0687952 23.6136495,22.7521929 L23.6136495,11.7734659 C16.8166939,14.2638589 11.9469828,20.9835705 11.9469828,28.8823335 C11.9469828,36.7810964 16.8166939,43.500808 23.6136495,45.991201 L23.6136495,58.7734659 L9.4398525,58.7734659 C5.79656002,58.7734659 2.76240843,55.9788578 2.46345791,52.3478512 L0.023674349,22.7146195 C-0.184082036,20.1912427 0.986988265,17.7523584 3.08614479,16.3366837 L25.536021,1.19644956 C27.901701,-0.398968999 30.9989801,-0.398803472 33.3644896,1.19686793 L55.808448,16.3366014 C57.9072312,17.7523507 59.0780325,20.1910089 58.8702981,22.7141188 L56.4304733,52.3478512 C56.1315228,55.9788578 53.0973712,58.7734659 49.4540787,58.7734659 L35.2803161,58.7734659 L35.2803161,58.7734659 Z" id="Path" fill="#FFFFFF"></path>
    </g>
</svg>