<svg width="822" height="774" viewBox="0 0 822 774" fill="none" xmlns="http://www.w3.org/2000/svg">
<rect width="822" height="774" fill="#FAFAFA"/>
<g clip-path="url(#clip0)">
<g opacity="0.5">
<path opacity="0.5" d="M506.92 0H4.5C2.01472 0 0 2.01472 0 4.5V768.58C0 771.065 2.01472 773.08 4.5 773.08H506.92C509.405 773.08 511.42 771.065 511.42 768.58V4.5C511.42 2.01472 509.405 0 506.92 0Z" fill="url(#paint0_linear)"/>
</g>
<path d="M500.37 5.67999H11.06C8.57472 5.67999 6.56 7.69471 6.56 10.18V758.61C6.56 761.095 8.57472 763.11 11.06 763.11H500.37C502.855 763.11 504.87 761.095 504.87 758.61V10.18C504.87 7.69471 502.855 5.67999 500.37 5.67999Z" fill="white"/>
<path d="M151.55 145.21H60.89C58.4047 145.21 56.39 147.225 56.39 149.71V230.41C56.39 232.895 58.4047 234.91 60.89 234.91H151.55C154.035 234.91 156.05 232.895 156.05 230.41V149.71C156.05 147.225 154.035 145.21 151.55 145.21Z" fill="#70C55D"/>
<path d="M450.56 145.21H190.43C187.956 145.21 185.95 147.216 185.95 149.69V150.7C185.95 153.174 187.956 155.18 190.43 155.18H450.56C453.034 155.18 455.04 153.174 455.04 150.7V149.69C455.04 147.216 453.034 145.21 450.56 145.21Z" fill="#535461"/>
<path d="M405.16 175.1H190.43C187.956 175.1 185.95 177.106 185.95 179.58V180.59C185.95 183.064 187.956 185.07 190.43 185.07H405.16C407.634 185.07 409.64 183.064 409.64 180.59V179.58C409.64 177.106 407.634 175.1 405.16 175.1Z" fill="#535461"/>
<path d="M151.55 284.73H60.89C58.4047 284.73 56.39 286.745 56.39 289.23V369.93C56.39 372.415 58.4047 374.43 60.89 374.43H151.55C154.035 374.43 156.05 372.415 156.05 369.93V289.23C156.05 286.745 154.035 284.73 151.55 284.73Z" fill="#70C55D"/>
<path d="M450.56 284.73H190.43C187.956 284.73 185.95 286.736 185.95 289.21V290.22C185.95 292.694 187.956 294.7 190.43 294.7H450.56C453.034 294.7 455.04 292.694 455.04 290.22V289.21C455.04 286.736 453.034 284.73 450.56 284.73Z" fill="#535461"/>
<path d="M450.56 314.63H190.43C187.956 314.63 185.95 316.636 185.95 319.11V320.12C185.95 322.594 187.956 324.6 190.43 324.6H450.56C453.034 324.6 455.04 322.594 455.04 320.12V319.11C455.04 316.636 453.034 314.63 450.56 314.63Z" fill="#535461"/>
<path d="M151.55 424.26H60.89C58.4047 424.26 56.39 426.275 56.39 428.76V509.46C56.39 511.945 58.4047 513.96 60.89 513.96H151.55C154.035 513.96 156.05 511.945 156.05 509.46V428.76C156.05 426.275 154.035 424.26 151.55 424.26Z" fill="#70C55D"/>
<path d="M450.56 424.26H190.43C187.956 424.26 185.95 426.266 185.95 428.74V429.75C185.95 432.224 187.956 434.23 190.43 434.23H450.56C453.034 434.23 455.04 432.224 455.04 429.75V428.74C455.04 426.266 453.034 424.26 450.56 424.26Z" fill="#535461"/>
<path d="M211.37 454.16H190.43C187.956 454.16 185.95 456.166 185.95 458.64V459.65C185.95 462.124 187.956 464.13 190.43 464.13H211.37C213.844 464.13 215.85 462.124 215.85 459.65V458.64C215.85 456.166 213.844 454.16 211.37 454.16Z" fill="#535461"/>
<g opacity="0.5">
<path opacity="0.5" d="M817.5 248.91H322.75C320.265 248.91 318.25 250.925 318.25 253.41V698.82C318.25 701.305 320.265 703.32 322.75 703.32H817.5C819.985 703.32 822 701.305 822 698.82V253.41C822 250.925 819.985 248.91 817.5 248.91Z" fill="url(#paint1_linear)"/>
</g>
<path d="M810.57 253.47H330.53C328.045 253.47 326.03 255.485 326.03 257.97V689.11C326.03 691.595 328.045 693.61 330.53 693.61H810.57C813.055 693.61 815.07 691.595 815.07 689.11V257.97C815.07 255.485 813.055 253.47 810.57 253.47Z" fill="white"/>
<path d="M474.62 348.03H378.55C376.065 348.03 374.05 350.045 374.05 352.53V438.1C374.05 440.585 376.065 442.6 378.55 442.6H474.62C477.105 442.6 479.12 440.585 479.12 438.1V352.53C479.12 350.045 477.105 348.03 474.62 348.03Z" fill="#70C55D"/>
<path d="M789.84 348.03H515.14C512.655 348.03 510.64 350.045 510.64 352.53V354.04C510.64 356.525 512.655 358.54 515.14 358.54H789.84C792.325 358.54 794.34 356.525 794.34 354.04V352.53C794.34 350.045 792.325 348.03 789.84 348.03Z" fill="#535461"/>
<path d="M789.84 379.55H515.14C512.655 379.55 510.64 381.565 510.64 384.05V385.56C510.64 388.045 512.655 390.06 515.14 390.06H789.84C792.325 390.06 794.34 388.045 794.34 385.56V384.05C794.34 381.565 792.325 379.55 789.84 379.55Z" fill="#535461"/>
<path d="M789.84 493.97H368.04C365.555 493.97 363.54 495.985 363.54 498.47V499.98C363.54 502.465 365.555 504.48 368.04 504.48H789.84C792.325 504.48 794.34 502.465 794.34 499.98V498.47C794.34 495.985 792.325 493.97 789.84 493.97Z" fill="#535461"/>
<path d="M789.84 525.49H368.04C365.555 525.49 363.54 527.505 363.54 529.99V531.5C363.54 533.985 365.555 536 368.04 536H789.84C792.325 536 794.34 533.985 794.34 531.5V529.99C794.34 527.505 792.325 525.49 789.84 525.49Z" fill="#535461"/>
<path d="M789.84 567.52H368.04C365.555 567.52 363.54 569.535 363.54 572.02V573.53C363.54 576.015 365.555 578.03 368.04 578.03H789.84C792.325 578.03 794.34 576.015 794.34 573.53V572.02C794.34 569.535 792.325 567.52 789.84 567.52Z" fill="#535461"/>
<path d="M684.77 599.04H368.04C365.555 599.04 363.54 601.055 363.54 603.54V605.05C363.54 607.535 365.555 609.55 368.04 609.55H684.77C687.255 609.55 689.27 607.535 689.27 605.05V603.54C689.27 601.055 687.255 599.04 684.77 599.04Z" fill="#535461"/>
</g>
<defs>
<linearGradient id="paint0_linear" x1="255.71" y1="773.08" x2="255.71" y2="0" gradientUnits="userSpaceOnUse">
<stop stop-color="#808080" stop-opacity="0.25"/>
<stop offset="0.54" stop-color="#808080" stop-opacity="0.12"/>
<stop offset="1" stop-color="#808080" stop-opacity="0.1"/>
</linearGradient>
<linearGradient id="paint1_linear" x1="287516" y1="319840" x2="287516" y2="113356" gradientUnits="userSpaceOnUse">
<stop stop-color="#808080" stop-opacity="0.25"/>
<stop offset="0.54" stop-color="#808080" stop-opacity="0.12"/>
<stop offset="1" stop-color="#808080" stop-opacity="0.1"/>
</linearGradient>
<clipPath id="clip0">
<rect width="822" height="773.08" fill="white"/>
</clipPath>
</defs>
</svg>
