<?xml version="1.0" encoding="UTF-8"?>
<svg width="15px" height="15px" viewBox="0 0 15 15" version="1.1" xmlns="http://www.w3.org/2000/svg" xmlns:xlink="http://www.w3.org/1999/xlink">
    <!-- Generator: Sketch 55.1 (78136) - https://sketchapp.com -->
    <title>camera-solid</title>
    <desc>Created with Sketch.</desc>
    <g id="Page-1" stroke="none" stroke-width="1" fill="none" fill-rule="evenodd">
        <g id="Group-8" transform="translate(-71.000000, -338.000000)" fill="#70C55D" fill-rule="nonzero">
            <g id="Group-13" transform="translate(57.000000, 63.000000)">
                <g id="camera-solid" transform="translate(14.000000, 275.000000)">
                    <path d="M15,3.53846154 L15,12.6373626 C15,13.4745879 14.3701172,14.1538462 13.59375,14.1538462 L1.40625,14.1538462 C0.629882812,14.1538462 0,13.4745879 0,12.6373626 L0,3.53846154 C0,2.70123626 0.629882812,2.02197802 1.40625,2.02197802 L3.984375,2.02197802 L4.34472656,0.982554945 C4.54980469,0.391758242 5.07421875,0 5.66015625,0 L9.33691406,0 C9.92285156,0 10.4472656,0.391758242 10.6523438,0.982554945 L11.015625,2.02197802 L13.59375,2.02197802 C14.3701172,2.02197802 15,2.70123626 15,3.53846154 Z M11.015625,8.08791209 C11.015625,5.99642857 9.43945313,4.2967033 7.5,4.2967033 C5.56054688,4.2967033 3.984375,5.99642857 3.984375,8.08791209 C3.984375,10.1793956 5.56054688,11.8791209 7.5,11.8791209 C9.43945313,11.8791209 11.015625,10.1793956 11.015625,8.08791209 Z M10.078125,8.08791209 C10.078125,9.62019231 8.92089844,10.8681319 7.5,10.8681319 C6.07910156,10.8681319 4.921875,9.62019231 4.921875,8.08791209 C4.921875,6.55563187 6.07910156,5.30769231 7.5,5.30769231 C8.92089844,5.30769231 10.078125,6.55563187 10.078125,8.08791209 Z" id="Shape"></path>
                </g>
            </g>
        </g>
    </g>
</svg>